<?xml version="1.0" standalone="no"?>
<!DOCTYPE svg PUBLIC "-//W3C//DTD SVG 20010904//EN"
 "http://www.w3.org/TR/2001/REC-SVG-20010904/DTD/svg10.dtd">
<svg version="1.0" xmlns="http://www.w3.org/2000/svg"
 width="512.000000pt" height="512.000000pt" viewBox="0 0 512.000000 512.000000"
 preserveAspectRatio="xMidYMid meet">
<metadata>
Created by potrace 1.14, written by Peter Selinger 2001-2017
</metadata>
<g transform="translate(0.000000,512.000000) scale(0.100000,-0.100000)"
fill="#000000" stroke="none">
<path d="M2516 5110 c-55 -17 -105 -61 -132 -116 -15 -30 -26 -65 -26 -78 0
-23 -3 -23 -64 -18 -100 8 -181 -40 -234 -138 -9 -16 -15 -63 -16 -129 l-2
-103 -78 -2 c-72 -1 -83 -4 -126 -34 -104 -72 -108 -90 -108 -462 0 -294 1
-307 20 -328 12 -12 29 -22 38 -22 15 0 17 -13 17 -111 0 -110 0 -111 -27
-125 -15 -8 -32 -23 -38 -34 -13 -25 -13 -265 1 -332 25 -121 108 -244 209
-309 l49 -32 0 -1339 c0 -1476 -5 -1379 61 -1393 37 -8 77 14 85 48 l6 22 382
0 c368 0 382 -1 387 -19 9 -33 54 -59 89 -51 62 13 59 -66 59 1380 1 726 1
1327 1 1336 1 8 28 35 61 59 88 64 132 127 217 316 298 663 335 751 340 801
19 178 -176 305 -334 219 -67 -37 -90 -70 -158 -229 l-60 -138 -5 493 c-4 348
-8 501 -17 519 -39 87 -136 143 -237 137 -55 -3 -61 -1 -62 17 -3 61 -64 149
-125 181 -34 17 -135 26 -173 14z"/>
<path d="M4165 3700 c-72 -18 -114 -49 -154 -113 -38 -62 -38 -101 3 -312 2
-11 7 -40 11 -65 4 -25 9 -54 12 -65 16 -78 21 -110 18 -116 -3 -3 -18 -6 -34
-7 -75 -2 -163 -65 -197 -141 -15 -35 -21 -40 -41 -35 -105 27 -214 -23 -266
-119 -22 -42 -22 -46 -23 -527 -1 -449 0 -490 18 -555 32 -118 123 -242 212
-290 20 -11 36 -26 37 -35 0 -8 1 -298 1 -644 l1 -630 23 -21 c37 -34 84 -28
111 15 l23 35 377 0 378 0 13 -28 c24 -50 80 -60 117 -22 l25 24 0 284 c0 272
-1 285 -21 311 -11 14 -26 26 -34 26 -19 0 -21 14 -21 127 l1 102 35 23 35 24
3 196 2 196 30 12 c89 37 207 206 230 329 16 84 12 827 -4 873 -20 56 -56 95
-117 126 l-56 29 58 199 c31 109 76 267 100 349 52 182 57 259 20 318 -33 53
-58 76 -111 100 -84 38 -183 20 -248 -44 -47 -46 -59 -73 -104 -233 -22 -78
-51 -179 -64 -226 -14 -47 -26 -90 -28 -97 -7 -36 -15 -10 -39 124 -15 82 -28
157 -31 168 -2 11 -7 40 -11 65 -14 87 -16 95 -36 140 -42 95 -157 154 -254
130z"/>
<path d="M479 2613 c-61 -18 -123 -72 -145 -128 -17 -41 -21 -45 -44 -39 -110
31 -251 -48 -280 -158 -6 -22 -10 -224 -9 -510 1 -519 2 -529 62 -642 36 -68
90 -127 160 -175 l47 -32 0 -437 c0 -476 0 -472 56 -486 37 -10 63 1 85 37
l19 32 380 0 c350 0 380 -1 380 -17 0 -22 47 -58 75 -58 13 0 33 9 46 19 l24
19 1 447 2 446 43 28 c89 57 171 163 205 267 17 54 19 93 19 484 0 418 0 426
-22 466 -29 55 -85 102 -137 116 l-44 12 -4 80 c-6 112 -42 172 -129 217 -66
33 -182 24 -231 -18 -15 -13 -23 -12 -70 11 -29 14 -69 27 -88 29 -45 4 -127
-17 -151 -39 -18 -16 -22 -16 -72 9 -63 32 -117 38 -178 20z"/>
</g>
</svg>
